<mxfile host="app.diagrams.net" modified="2023-09-10T14:57:16.988Z" agent="Mozilla/5.0 (Windows NT 10.0; Win64; x64) AppleWebKit/537.36 (KHTML, like Gecko) Chrome/116.0.0.0 Safari/537.36 Edg/116.0.1938.76" etag="2N2Lmg8YKBqxaagHxpaO" version="21.7.4" type="device">
  <diagram name="Page-1" id="mJqR5C_NXIsNn32FVebP">
    <mxGraphModel dx="1379" dy="796" grid="1" gridSize="10" guides="1" tooltips="1" connect="1" arrows="1" fold="1" page="1" pageScale="1" pageWidth="827" pageHeight="1169" math="0" shadow="0">
      <root>
        <mxCell id="0" />
        <mxCell id="1" parent="0" />
        <mxCell id="Y3HEBBckIySWQTL9KgEx-3" style="edgeStyle=orthogonalEdgeStyle;rounded=0;orthogonalLoop=1;jettySize=auto;html=1;" edge="1" parent="1" target="Y3HEBBckIySWQTL9KgEx-2">
          <mxGeometry relative="1" as="geometry">
            <mxPoint x="110" y="370" as="sourcePoint" />
          </mxGeometry>
        </mxCell>
        <mxCell id="Y3HEBBckIySWQTL9KgEx-1" value="" style="image;html=1;image=img/lib/clip_art/networking/Ip_Camera_128x128.png" vertex="1" parent="1">
          <mxGeometry x="20" y="320" width="80" height="80" as="geometry" />
        </mxCell>
        <mxCell id="Y3HEBBckIySWQTL9KgEx-4" style="edgeStyle=orthogonalEdgeStyle;rounded=0;orthogonalLoop=1;jettySize=auto;html=1;entryX=1;entryY=0.5;entryDx=0;entryDy=0;" edge="1" parent="1" source="Y3HEBBckIySWQTL9KgEx-2">
          <mxGeometry relative="1" as="geometry">
            <mxPoint x="110" y="370" as="targetPoint" />
          </mxGeometry>
        </mxCell>
        <mxCell id="Y3HEBBckIySWQTL9KgEx-21" style="edgeStyle=orthogonalEdgeStyle;rounded=0;orthogonalLoop=1;jettySize=auto;html=1;entryX=0;entryY=0.5;entryDx=0;entryDy=0;" edge="1" parent="1" source="Y3HEBBckIySWQTL9KgEx-2" target="Y3HEBBckIySWQTL9KgEx-20">
          <mxGeometry relative="1" as="geometry" />
        </mxCell>
        <mxCell id="Y3HEBBckIySWQTL9KgEx-2" value="&lt;font style=&quot;font-size: 20px;&quot;&gt;Intrusion warning System&lt;/font&gt;" style="rounded=0;whiteSpace=wrap;html=1;fillColor=#f8cecc;strokeColor=#b85450;" vertex="1" parent="1">
          <mxGeometry x="210" y="320" width="157" height="100" as="geometry" />
        </mxCell>
        <mxCell id="Y3HEBBckIySWQTL9KgEx-7" style="edgeStyle=orthogonalEdgeStyle;rounded=0;orthogonalLoop=1;jettySize=auto;html=1;entryX=0.5;entryY=0;entryDx=0;entryDy=0;" edge="1" parent="1" source="Y3HEBBckIySWQTL9KgEx-5" target="Y3HEBBckIySWQTL9KgEx-2">
          <mxGeometry relative="1" as="geometry" />
        </mxCell>
        <mxCell id="Y3HEBBckIySWQTL9KgEx-5" value="YOLOv3 Detect Person" style="shape=process;whiteSpace=wrap;html=1;backgroundOutline=1;fillColor=#fff2cc;strokeColor=#d6b656;" vertex="1" parent="1">
          <mxGeometry x="330" y="220" width="117" height="60" as="geometry" />
        </mxCell>
        <mxCell id="Y3HEBBckIySWQTL9KgEx-8" style="edgeStyle=orthogonalEdgeStyle;rounded=0;orthogonalLoop=1;jettySize=auto;html=1;" edge="1" parent="1" source="Y3HEBBckIySWQTL9KgEx-6" target="Y3HEBBckIySWQTL9KgEx-2">
          <mxGeometry relative="1" as="geometry" />
        </mxCell>
        <mxCell id="Y3HEBBckIySWQTL9KgEx-6" value="Telegram Utilities" style="shape=process;whiteSpace=wrap;html=1;backgroundOutline=1;fillColor=#fff2cc;strokeColor=#d6b656;" vertex="1" parent="1">
          <mxGeometry x="230" y="470" width="117" height="60" as="geometry" />
        </mxCell>
        <mxCell id="Y3HEBBckIySWQTL9KgEx-9" value="&lt;font style=&quot;font-size: 20px;&quot;&gt;- Warning in sound to the admin system&lt;br&gt;- Sending&amp;nbsp;Intrusion detection message to User who subscribed the system via Telegram&lt;br&gt;&lt;/font&gt;" style="rounded=0;whiteSpace=wrap;html=1;fillColor=#d5e8d4;strokeColor=#82b366;" vertex="1" parent="1">
          <mxGeometry x="600" y="110" width="220" height="200" as="geometry" />
        </mxCell>
        <mxCell id="Y3HEBBckIySWQTL9KgEx-18" style="edgeStyle=orthogonalEdgeStyle;rounded=0;orthogonalLoop=1;jettySize=auto;html=1;entryX=1;entryY=0.5;entryDx=0;entryDy=0;" edge="1" parent="1" source="Y3HEBBckIySWQTL9KgEx-13" target="Y3HEBBckIySWQTL9KgEx-5">
          <mxGeometry relative="1" as="geometry" />
        </mxCell>
        <mxCell id="Y3HEBBckIySWQTL9KgEx-13" value="Alert" style="shape=process;whiteSpace=wrap;html=1;backgroundOutline=1;" vertex="1" parent="1">
          <mxGeometry x="414" y="130" width="120" height="60" as="geometry" />
        </mxCell>
        <mxCell id="Y3HEBBckIySWQTL9KgEx-17" style="edgeStyle=orthogonalEdgeStyle;rounded=0;orthogonalLoop=1;jettySize=auto;html=1;entryX=0.5;entryY=1;entryDx=0;entryDy=0;" edge="1" parent="1" source="Y3HEBBckIySWQTL9KgEx-15" target="Y3HEBBckIySWQTL9KgEx-6">
          <mxGeometry relative="1" as="geometry" />
        </mxCell>
        <mxCell id="Y3HEBBckIySWQTL9KgEx-15" value="Send message" style="shape=process;whiteSpace=wrap;html=1;backgroundOutline=1;" vertex="1" parent="1">
          <mxGeometry x="230" y="570" width="117" height="60" as="geometry" />
        </mxCell>
        <mxCell id="Y3HEBBckIySWQTL9KgEx-22" style="edgeStyle=orthogonalEdgeStyle;rounded=0;orthogonalLoop=1;jettySize=auto;html=1;entryX=0;entryY=0.5;entryDx=0;entryDy=0;" edge="1" parent="1" source="Y3HEBBckIySWQTL9KgEx-20" target="Y3HEBBckIySWQTL9KgEx-9">
          <mxGeometry relative="1" as="geometry" />
        </mxCell>
        <mxCell id="Y3HEBBckIySWQTL9KgEx-28" style="edgeStyle=orthogonalEdgeStyle;rounded=0;orthogonalLoop=1;jettySize=auto;html=1;entryX=0;entryY=0.5;entryDx=0;entryDy=0;" edge="1" parent="1" source="Y3HEBBckIySWQTL9KgEx-20" target="Y3HEBBckIySWQTL9KgEx-26">
          <mxGeometry relative="1" as="geometry" />
        </mxCell>
        <mxCell id="Y3HEBBckIySWQTL9KgEx-20" value="Person detection" style="rhombus;whiteSpace=wrap;html=1;" vertex="1" parent="1">
          <mxGeometry x="410" y="330" width="110" height="80" as="geometry" />
        </mxCell>
        <mxCell id="Y3HEBBckIySWQTL9KgEx-23" value="There is a person" style="text;html=1;strokeColor=none;fillColor=none;align=center;verticalAlign=middle;whiteSpace=wrap;rounded=0;" vertex="1" parent="1">
          <mxGeometry x="500" y="260" width="60" height="30" as="geometry" />
        </mxCell>
        <mxCell id="Y3HEBBckIySWQTL9KgEx-24" value="There is no person" style="text;html=1;strokeColor=none;fillColor=none;align=center;verticalAlign=middle;whiteSpace=wrap;rounded=0;" vertex="1" parent="1">
          <mxGeometry x="396" y="510" width="60" height="30" as="geometry" />
        </mxCell>
        <mxCell id="Y3HEBBckIySWQTL9KgEx-29" style="edgeStyle=orthogonalEdgeStyle;rounded=0;orthogonalLoop=1;jettySize=auto;html=1;entryX=1;entryY=1;entryDx=0;entryDy=0;" edge="1" parent="1" source="Y3HEBBckIySWQTL9KgEx-26" target="Y3HEBBckIySWQTL9KgEx-20">
          <mxGeometry relative="1" as="geometry" />
        </mxCell>
        <mxCell id="Y3HEBBckIySWQTL9KgEx-26" value="&lt;font style=&quot;font-size: 20px;&quot;&gt;Print &quot;False&quot; to the console screen&lt;/font&gt;" style="rounded=0;whiteSpace=wrap;html=1;fillColor=#d5e8d4;strokeColor=#82b366;" vertex="1" parent="1">
          <mxGeometry x="520" y="530" width="160" height="130" as="geometry" />
        </mxCell>
        <mxCell id="Y3HEBBckIySWQTL9KgEx-33" style="edgeStyle=orthogonalEdgeStyle;rounded=0;orthogonalLoop=1;jettySize=auto;html=1;entryX=0.5;entryY=0;entryDx=0;entryDy=0;" edge="1" parent="1" source="Y3HEBBckIySWQTL9KgEx-32" target="Y3HEBBckIySWQTL9KgEx-2">
          <mxGeometry relative="1" as="geometry" />
        </mxCell>
        <mxCell id="Y3HEBBckIySWQTL9KgEx-32" value="Drawing Polygon Area" style="shape=process;whiteSpace=wrap;html=1;backgroundOutline=1;fillColor=#fff2cc;strokeColor=#d6b656;" vertex="1" parent="1">
          <mxGeometry x="113" y="220" width="117" height="60" as="geometry" />
        </mxCell>
      </root>
    </mxGraphModel>
  </diagram>
</mxfile>
